<?xml version="1.0" ?><!DOCTYPE svg  PUBLIC '-//W3C//DTD SVG 1.1//EN'  'http://www.w3.org/Graphics/SVG/1.1/DTD/svg11.dtd'><svg height="32px" id="Layer_1" style="enable-background:new 0 0 32 32;" version="1.1" viewBox="0 0 32 32" width="32px" xml:space="preserve" xmlns="http://www.w3.org/2000/svg" xmlns:xlink="http://www.w3.org/1999/xlink"><g transform="translate(192 336)"><path d="M-177.845-314.289l7.556-7.556c1.869,0.52,3.957,0.043,5.428-1.426c1.469-1.47,1.943-3.557,1.426-5.427l-2.873,2.873   c-0.781,0.781-2.047,0.781-2.828,0l-1.039-1.039c-0.781-0.78-0.781-2.047,0-2.827l2.873-2.873c-1.869-0.52-3.957-0.043-5.426,1.426   c-1.471,1.47-1.945,3.557-1.426,5.427l-7.557,7.555c-1.869-0.519-3.955-0.044-5.427,1.427c-1.469,1.47-1.944,3.556-1.426,5.427   l2.873-2.873c0.781-0.781,2.047-0.781,2.828,0l1.039,1.039c0.781,0.78,0.781,2.047,0,2.827l-2.873,2.873   c1.869,0.52,3.957,0.043,5.426-1.426C-177.802-310.333-177.325-312.42-177.845-314.289z M-177.724-316.95   c-0.367,0.366-0.961,0.366-1.326,0c-0.366-0.365-0.366-0.96,0-1.325l4.861-4.861c0.365-0.365,0.959-0.365,1.326,0   c0.365,0.366,0.365,0.961,0,1.326L-177.724-316.95z"/></g></svg>