<svg xmlns="http://www.w3.org/2000/svg" xmlns:xlink="http://www.w3.org/1999/xlink" version="1.1" x="0px" y="0px" viewBox="0 0 100 125" style="enable-background:new 0 0 100 100;" xml:space="preserve"><g><g><g><path d="M64.46,87.76c-1.07,0-2.13-0.25-3.11-0.74L31.23,71.97c-3.44-1.72-4.84-5.92-3.12-9.36l23.45-46.9     c0.84-1.68,2.29-2.93,4.08-3.52c1.79-0.58,3.7-0.43,5.37,0.44l28.96,15.02c3.35,1.74,4.71,5.78,3.09,9.19L70.77,83.78     c-0.81,1.71-2.24,2.99-4.03,3.6C65.99,87.64,65.22,87.76,64.46,87.76z M57.81,15.85c-0.31,0-0.62,0.05-0.92,0.15     c-0.76,0.25-1.38,0.78-1.74,1.5L31.69,64.4c-0.73,1.47-0.14,3.26,1.33,4l30.11,15.06c0.72,0.36,1.54,0.41,2.3,0.15     c0.76-0.26,1.37-0.81,1.72-1.54l22.29-46.94c0.69-1.46,0.11-3.18-1.32-3.92L59.17,16.19C58.74,15.96,58.28,15.85,57.81,15.85z"/></g><g><path d="M33.89,88.15c-0.71,0-1.43-0.13-2.12-0.38c-1.54-0.57-2.77-1.7-3.46-3.19L6.9,38.19c-1.57-3.39-0.2-7.4,3.12-9.12     l28.96-15.02c1.68-0.87,3.6-1.02,5.4-0.43c1.8,0.6,3.25,1.86,4.08,3.57l2.65,5.44c0.48,0.99,0.07,2.19-0.92,2.67     c-1,0.49-2.19,0.07-2.67-0.92l-2.65-5.44c-0.35-0.73-0.97-1.27-1.74-1.52c-0.77-0.26-1.59-0.19-2.31,0.18L11.87,32.62     c-1.42,0.73-2,2.44-1.33,3.89l21.41,46.39c0.24,0.52,0.67,0.91,1.2,1.11c0.54,0.2,1.12,0.17,1.63-0.07l14.4-6.69     c1-0.46,2.19-0.03,2.66,0.97c0.46,1,0.03,2.19-0.97,2.66l-14.4,6.69C35.64,87.96,34.77,88.15,33.89,88.15z"/></g><g><path d="M56.1,61.98c-0.28,0-0.46,0-0.52-0.01c-0.34-0.01-0.66-0.19-0.83-0.48c-0.35-0.57-8.41-14.15-4.21-21.94v0     c1.98-3.66,7.39-5.22,11.13-3.2c1.72,0.93,3.01,2.42,3.63,4.21c0.25,0.74,0.38,1.49,0.39,2.24c0.75-0.34,1.61-0.56,2.57-0.65     c2.02-0.19,4.26,0.25,5.98,1.18c1.81,0.97,2.9,2.83,3.08,5.22c0.15,1.94-0.33,4.15-1.28,5.91C72.2,61.59,58.94,61.98,56.1,61.98z      M52.3,40.5c-3.26,6.04,2.53,17.05,3.89,19.48c2.75-0.02,14.86-0.46,18.09-6.46c0.78-1.44,1.17-3.24,1.05-4.81     c-0.09-1.19-0.52-2.79-2.04-3.61c-1.37-0.74-3.23-1.1-4.85-0.95c-0.99,0.09-2.78,0.47-3.57,1.94c-0.26,0.49-0.87,0.67-1.35,0.41     c-0.33-0.18-0.53-0.53-0.53-0.88c0-0.16,0.04-0.32,0.12-0.47c0.65-1.21,0.76-2.6,0.3-3.92c-0.46-1.32-1.41-2.42-2.69-3.11     C57.99,36.63,53.74,37.84,52.3,40.5L52.3,40.5z"/></g></g></g><text x="0" y="115" fill="#000000" font-size="5px" font-weight="bold" font-family="'Helvetica Neue', Helvetica, Arial-Unicode, Arial, Sans-serif">Created by Line Icons Pro</text><text x="0" y="120" fill="#000000" font-size="5px" font-weight="bold" font-family="'Helvetica Neue', Helvetica, Arial-Unicode, Arial, Sans-serif">from the Noun Project</text></svg>